<?xml version="1.0" encoding="iso-8859-1"?>
<!-- Generator: Adobe Illustrator 19.0.0, SVG Export Plug-In . SVG Version: 6.00 Build 0)  -->
<svg version="1.1" id="Layer_1" xmlns="http://www.w3.org/2000/svg" xmlns:xlink="http://www.w3.org/1999/xlink" x="0px" y="0px"
	 viewBox="0 0 485.102 485.102" style="enable-background:new 0 0 485.102 485.102;" xml:space="preserve">
<g transform="translate(0 -540.36)">
	<g>
		<g>
			<path d="M483.465,805.461c-6.9-60.3-35.3-116-79.8-156.7c-44.4-40.6-101.8-62.9-161.5-62.9c-59.8,0-117.1,22.3-161.5,62.9
				c-0.1,0.1-0.1,0.1-0.1,0.1c-44.2,41.2-72.2,97-79,157c-6.8,60.7,8.7,121.1,43.9,169.9c1.9,2.7,4.9,4.2,8.1,4.2h377.9
				c3.2,0,6.2-1.5,8.2-4.2C474.865,926.861,490.465,866.361,483.465,805.461z M426.264,959.961h-367.5l0,0
				c-63-91.8-48.2-218.4,35.4-296.4c84.4-77.1,211.6-77.1,295.9,0C474.664,740.861,489.764,867.461,426.264,959.961z"/>
			<path d="M332.164,663.561c-27.4-15.8-58.5-24.2-90.1-24.2c-31.2,0-62.1,8.4-89.4,24.2c-27.2,15.8-50.1,38.7-66.4,66.2
				c-0.9,1.5-1.4,3.3-1.4,5.1v53c0,5.5,4.5,10,10,10s10-4.5,10-10v-50.2c11.4-18.7,26.3-34.6,43.4-47.2v44.4c0,5.5,4.5,10,10,10
				s10-4.5,10-10v-56.9c19.9-10.6,41.9-16.9,64.5-18.3v53.8c0,5.5,4.5,10,10,10s10-4.5,10-10v-53.8c22.9,1.5,44.8,7.9,64.5,18.4
				v56.7c0,5.5,4.5,10,10,10s10-4.5,10-10v-44c16.7,12.4,31.2,28.2,42.6,46.8v50.2c0,5.5,4.5,10,10,10s10-4.5,10-10v-53
				c0.2-1.7-0.3-3.4-1.2-5C382.464,702.261,359.464,679.361,332.164,663.561z"/>
			<path d="M242.965,841.961c-1.6,0-3.1,0.1-4.6,0.3l-28.7-58c-2.4-5-8.4-7-13.4-4.5c-5,2.4-7,8.4-4.5,13.4l27.7,56.1
				c-11.2,7.6-18.6,20.6-18.6,35.2c0,23.3,18.5,41.6,42.1,41.6c22.8,0,41.3-18.7,41.3-41.6
				C284.164,861.061,265.664,841.961,242.965,841.961z M242.965,906.061c-12.4,0-22.1-9.5-22.1-21.6c0-12.4,9.9-22.5,22.1-22.5
				c11.5,0,21.3,10.3,21.3,22.5C264.164,896.361,254.664,906.061,242.965,906.061z"/>
		</g>
	</g>
</g>
<g>
</g>
<g>
</g>
<g>
</g>
<g>
</g>
<g>
</g>
<g>
</g>
<g>
</g>
<g>
</g>
<g>
</g>
<g>
</g>
<g>
</g>
<g>
</g>
<g>
</g>
<g>
</g>
<g>
</g>
</svg>
